<mxfile host="app.diagrams.net" modified="2024-06-02T08:56:49.202Z" agent="Mozilla/5.0 (Windows NT 10.0; Win64; x64) AppleWebKit/537.36 (KHTML, like Gecko) Chrome/125.0.0.0 Safari/537.36" etag="7jdVj3q0t7da82TwaoFh" version="24.4.13" type="github">
  <diagram name="第 1 页" id="Ik-g8sNIh_6q8OoHqGbS">
    <mxGraphModel dx="576" dy="305" grid="1" gridSize="10" guides="1" tooltips="1" connect="1" arrows="1" fold="1" page="1" pageScale="1" pageWidth="827" pageHeight="1169" math="0" shadow="0">
      <root>
        <mxCell id="0" />
        <mxCell id="1" parent="0" />
        <mxCell id="dMCegh1roNdyK8uuiMYh-36" value="" style="whiteSpace=wrap;html=1;" vertex="1" parent="1">
          <mxGeometry x="274" y="580" width="60" height="80" as="geometry" />
        </mxCell>
        <mxCell id="dMCegh1roNdyK8uuiMYh-37" value="" style="whiteSpace=wrap;html=1;" vertex="1" parent="1">
          <mxGeometry x="272" y="582" width="60" height="80" as="geometry" />
        </mxCell>
        <mxCell id="dMCegh1roNdyK8uuiMYh-38" value="" style="whiteSpace=wrap;html=1;" vertex="1" parent="1">
          <mxGeometry x="270" y="584" width="60" height="80" as="geometry" />
        </mxCell>
        <mxCell id="dMCegh1roNdyK8uuiMYh-39" value="" style="edgeStyle=none;orthogonalLoop=1;jettySize=auto;html=1;rounded=0;entryX=-0.007;entryY=0.689;entryDx=0;entryDy=0;entryPerimeter=0;endArrow=none;endFill=0;" edge="1" parent="1" target="dMCegh1roNdyK8uuiMYh-38">
          <mxGeometry width="80" relative="1" as="geometry">
            <mxPoint x="280" y="644" as="sourcePoint" />
            <mxPoint x="490" y="644" as="targetPoint" />
            <Array as="points" />
          </mxGeometry>
        </mxCell>
        <mxCell id="dMCegh1roNdyK8uuiMYh-40" value="" style="edgeStyle=none;orthogonalLoop=1;jettySize=auto;html=1;rounded=0;entryX=-0.001;entryY=0.806;entryDx=0;entryDy=0;entryPerimeter=0;endArrow=none;endFill=0;" edge="1" parent="1" target="dMCegh1roNdyK8uuiMYh-38">
          <mxGeometry width="80" relative="1" as="geometry">
            <mxPoint x="280" y="644" as="sourcePoint" />
            <mxPoint x="280" y="649" as="targetPoint" />
            <Array as="points" />
          </mxGeometry>
        </mxCell>
        <mxCell id="dMCegh1roNdyK8uuiMYh-41" value="" style="edgeStyle=none;orthogonalLoop=1;jettySize=auto;html=1;rounded=0;endArrow=none;endFill=0;exitX=0;exitY=0.75;exitDx=0;exitDy=0;" edge="1" parent="1" source="dMCegh1roNdyK8uuiMYh-38">
          <mxGeometry width="80" relative="1" as="geometry">
            <mxPoint x="290" y="654" as="sourcePoint" />
            <mxPoint x="250" y="644" as="targetPoint" />
            <Array as="points" />
          </mxGeometry>
        </mxCell>
        <mxCell id="dMCegh1roNdyK8uuiMYh-42" value="" style="whiteSpace=wrap;html=1;" vertex="1" parent="1">
          <mxGeometry x="268" y="586" width="60" height="80" as="geometry" />
        </mxCell>
        <mxCell id="dMCegh1roNdyK8uuiMYh-43" value="" style="whiteSpace=wrap;html=1;" vertex="1" parent="1">
          <mxGeometry x="266" y="588" width="60" height="80" as="geometry" />
        </mxCell>
        <mxCell id="dMCegh1roNdyK8uuiMYh-44" value="" style="edgeStyle=none;orthogonalLoop=1;jettySize=auto;html=1;rounded=0;exitX=-0.001;exitY=0.645;exitDx=0;exitDy=0;exitPerimeter=0;entryX=0.296;entryY=0.752;entryDx=0;entryDy=0;entryPerimeter=0;endArrow=none;endFill=0;" edge="1" parent="1">
          <mxGeometry width="80" relative="1" as="geometry">
            <mxPoint x="266.00000000000006" y="639.6" as="sourcePoint" />
            <mxPoint x="275.6" y="644.1600000000001" as="targetPoint" />
            <Array as="points" />
          </mxGeometry>
        </mxCell>
        <mxCell id="dMCegh1roNdyK8uuiMYh-45" value="" style="edgeStyle=none;orthogonalLoop=1;jettySize=auto;html=1;rounded=0;exitX=-0.001;exitY=0.645;exitDx=0;exitDy=0;exitPerimeter=0;entryX=0.025;entryY=0.801;entryDx=0;entryDy=0;entryPerimeter=0;endArrow=none;endFill=0;" edge="1" parent="1" target="dMCegh1roNdyK8uuiMYh-36">
          <mxGeometry width="80" relative="1" as="geometry">
            <mxPoint x="266.00000000000006" y="649" as="sourcePoint" />
            <mxPoint x="276" y="653.4" as="targetPoint" />
            <Array as="points" />
          </mxGeometry>
        </mxCell>
        <mxCell id="dMCegh1roNdyK8uuiMYh-46" value="" style="edgeStyle=none;orthogonalLoop=1;jettySize=auto;html=1;rounded=0;shape=link;" edge="1" parent="1">
          <mxGeometry width="80" relative="1" as="geometry">
            <mxPoint x="250" y="604" as="sourcePoint" />
            <mxPoint x="266" y="604" as="targetPoint" />
            <Array as="points" />
          </mxGeometry>
        </mxCell>
        <mxCell id="dMCegh1roNdyK8uuiMYh-47" value="" style="edgeStyle=none;orthogonalLoop=1;jettySize=auto;html=1;rounded=0;shape=link;" edge="1" parent="1">
          <mxGeometry width="80" relative="1" as="geometry">
            <mxPoint x="334" y="604" as="sourcePoint" />
            <mxPoint x="350" y="604" as="targetPoint" />
            <Array as="points" />
          </mxGeometry>
        </mxCell>
        <mxCell id="dMCegh1roNdyK8uuiMYh-48" value="" style="edgeStyle=none;orthogonalLoop=1;jettySize=auto;html=1;rounded=0;shape=link;" edge="1" parent="1">
          <mxGeometry width="80" relative="1" as="geometry">
            <mxPoint x="334" y="644" as="sourcePoint" />
            <mxPoint x="350" y="644" as="targetPoint" />
            <Array as="points" />
          </mxGeometry>
        </mxCell>
        <mxCell id="dMCegh1roNdyK8uuiMYh-49" value="D" style="text;strokeColor=none;align=center;fillColor=none;html=1;verticalAlign=middle;whiteSpace=wrap;rounded=0;" vertex="1" parent="1">
          <mxGeometry x="266" y="600" width="14" height="12" as="geometry" />
        </mxCell>
        <mxCell id="dMCegh1roNdyK8uuiMYh-50" value="Q" style="text;strokeColor=none;align=center;fillColor=none;html=1;verticalAlign=middle;whiteSpace=wrap;rounded=0;" vertex="1" parent="1">
          <mxGeometry x="312" y="600" width="14" height="12" as="geometry" />
        </mxCell>
        <mxCell id="dMCegh1roNdyK8uuiMYh-51" value="Q" style="text;strokeColor=none;align=center;fillColor=none;html=1;verticalAlign=middle;whiteSpace=wrap;rounded=0;" vertex="1" parent="1">
          <mxGeometry x="312" y="640" width="14" height="12" as="geometry" />
        </mxCell>
        <mxCell id="dMCegh1roNdyK8uuiMYh-52" value="" style="edgeStyle=none;orthogonalLoop=1;jettySize=auto;html=1;rounded=0;entryX=0.75;entryY=0;entryDx=0;entryDy=0;endArrow=none;endFill=0;exitX=0.25;exitY=0;exitDx=0;exitDy=0;" edge="1" parent="1" source="dMCegh1roNdyK8uuiMYh-51" target="dMCegh1roNdyK8uuiMYh-51">
          <mxGeometry width="80" relative="1" as="geometry">
            <mxPoint x="320" y="640" as="sourcePoint" />
            <mxPoint x="350" y="610" as="targetPoint" />
            <Array as="points" />
          </mxGeometry>
        </mxCell>
      </root>
    </mxGraphModel>
  </diagram>
</mxfile>
